<svg width="20" height="20" viewBox="0 0 20 20" fill="none" xmlns="http://www.w3.org/2000/svg">
<g clip-path="url(#clip0_11_1459)">
<path d="M1.875 8.75H8.75V1.875C8.75 1.18469 9.30969 0.625 10 0.625C10.6903 0.625 11.25 1.18469 11.25 1.875V8.75H18.125C18.8153 8.75 19.375 9.30969 19.375 10C19.375 10.6903 18.8153 11.25 18.125 11.25H11.25V18.125C11.25 18.8153 10.6903 19.375 10 19.375C9.30969 19.375 8.75 18.8153 8.75 18.125V11.25H1.875C1.18469 11.25 0.625 10.6903 0.625 10C0.625 9.30969 1.18469 8.75 1.875 8.75Z" fill="#162955"/>
</g>
<defs>
<clipPath id="clip0_11_1459">
<rect width="20" height="20" fill="white" transform="matrix(-1 0 0 1 20 0)"/>
</clipPath>
</defs>
</svg>
