<svg width="30" height="30" viewBox="0 0 30 30" fill="none" xmlns="http://www.w3.org/2000/svg">
<path d="M23.75 28.4375H6.25C5.00731 28.4358 3.81598 27.9415 2.93726 27.0627C2.05854 26.184 1.56415 24.9927 1.5625 23.75V8.75C1.56415 7.50731 2.05854 6.31598 2.93726 5.43726C3.81598 4.55854 5.00731 4.06415 6.25 4.0625H23.75C24.9927 4.06415 26.184 4.55854 27.0627 5.43726C27.9415 6.31598 28.4358 7.50731 28.4375 8.75V23.75C28.4358 24.9927 27.9415 26.184 27.0627 27.0627C26.184 27.9415 24.9927 28.4358 23.75 28.4375ZM6.25 5.9375C5.50438 5.93849 4.78959 6.23513 4.26236 6.76236C3.73513 7.28959 3.43849 8.00438 3.4375 8.75V23.75C3.43849 24.4956 3.73513 25.2104 4.26236 25.7376C4.78959 26.2649 5.50438 26.5615 6.25 26.5625H23.75C24.4956 26.5615 25.2104 26.2649 25.7376 25.7376C26.2649 25.2104 26.5615 24.4956 26.5625 23.75V8.75C26.5615 8.00438 26.2649 7.28959 25.7376 6.76236C25.2104 6.23513 24.4956 5.93849 23.75 5.9375H6.25Z" fill="#162955"/>
<path d="M27.5 12.1875H2.5C2.25136 12.1875 2.0129 12.0887 1.83709 11.9129C1.66127 11.7371 1.5625 11.4986 1.5625 11.25V8.75C1.56415 7.50731 2.05854 6.31598 2.93726 5.43726C3.81598 4.55854 5.00731 4.06415 6.25 4.0625H23.75C24.9927 4.06415 26.184 4.55854 27.0627 5.43726C27.9415 6.31598 28.4358 7.50731 28.4375 8.75V11.25C28.4375 11.4986 28.3387 11.7371 28.1629 11.9129C27.9871 12.0887 27.7486 12.1875 27.5 12.1875ZM3.4375 10.3125H26.5625V8.75C26.5615 8.00438 26.2649 7.28959 25.7376 6.76236C25.2104 6.23513 24.4956 5.93849 23.75 5.9375H6.25C5.50438 5.93849 4.78959 6.23513 4.26236 6.76236C3.73513 7.28959 3.43849 8.00438 3.4375 8.75V10.3125Z" fill="#162955"/>
<path d="M20 8.4375C19.7514 8.4375 19.5129 8.33873 19.3371 8.16291C19.1613 7.9871 19.0625 7.74864 19.0625 7.5V2.5C19.0625 2.25136 19.1613 2.0129 19.3371 1.83709C19.5129 1.66127 19.7514 1.5625 20 1.5625C20.2486 1.5625 20.4871 1.66127 20.6629 1.83709C20.8387 2.0129 20.9375 2.25136 20.9375 2.5V7.5C20.9375 7.74864 20.8387 7.9871 20.6629 8.16291C20.4871 8.33873 20.2486 8.4375 20 8.4375Z" fill="#162955"/>
<path d="M10 8.4375C9.75136 8.4375 9.5129 8.33873 9.33709 8.16291C9.16127 7.9871 9.0625 7.74864 9.0625 7.5V2.5C9.0625 2.25136 9.16127 2.0129 9.33709 1.83709C9.5129 1.66127 9.75136 1.5625 10 1.5625C10.2486 1.5625 10.4871 1.66127 10.6629 1.83709C10.8387 2.0129 10.9375 2.25136 10.9375 2.5V7.5C10.9375 7.74864 10.8387 7.9871 10.6629 8.16291C10.4871 8.33873 10.2486 8.4375 10 8.4375Z" fill="#162955"/>
<path d="M2.5 11.25V22.5C2.5 23.8261 3.02678 25.0979 3.96447 26.0355C4.90215 26.9732 6.17392 27.5 7.5 27.5H22.5C23.8261 27.5 25.0979 26.9732 26.0355 26.0355C26.9732 25.0979 27.5 23.8261 27.5 22.5V11.25H2.5ZM7.5 22.5C7.25277 22.5 7.0111 22.4267 6.80554 22.2893C6.59998 22.152 6.43976 21.9568 6.34515 21.7284C6.25054 21.4999 6.22579 21.2486 6.27402 21.0061C6.32225 20.7637 6.4413 20.5409 6.61612 20.3661C6.79093 20.1913 7.01366 20.0722 7.25614 20.024C7.49861 19.9758 7.74995 20.0005 7.97835 20.0951C8.20676 20.1898 8.40199 20.35 8.53934 20.5555C8.67669 20.7611 8.75 21.0028 8.75 21.25C8.75 21.5815 8.6183 21.8995 8.38388 22.1339C8.14946 22.3683 7.83152 22.5 7.5 22.5ZM7.5 17.5C7.25277 17.5 7.0111 17.4267 6.80554 17.2893C6.59998 17.152 6.43976 16.9568 6.34515 16.7284C6.25054 16.4999 6.22579 16.2486 6.27402 16.0061C6.32225 15.7637 6.4413 15.5409 6.61612 15.3661C6.79093 15.1913 7.01366 15.0722 7.25614 15.024C7.49861 14.9758 7.74995 15.0005 7.97835 15.0952C8.20676 15.1898 8.40199 15.35 8.53934 15.5555C8.67669 15.7611 8.75 16.0028 8.75 16.25C8.75 16.5815 8.6183 16.8995 8.38388 17.1339C8.14946 17.3683 7.83152 17.5 7.5 17.5ZM12.5 22.5C12.2528 22.5 12.0111 22.4267 11.8055 22.2893C11.6 22.152 11.4398 21.9568 11.3451 21.7284C11.2505 21.4999 11.2258 21.2486 11.274 21.0061C11.3222 20.7637 11.4413 20.5409 11.6161 20.3661C11.7909 20.1913 12.0137 20.0722 12.2561 20.024C12.4986 19.9758 12.7499 20.0005 12.9784 20.0951C13.2068 20.1898 13.402 20.35 13.5393 20.5555C13.6767 20.7611 13.75 21.0028 13.75 21.25C13.75 21.5815 13.6183 21.8995 13.3839 22.1339C13.1495 22.3683 12.8315 22.5 12.5 22.5ZM12.5 17.5C12.2528 17.5 12.0111 17.4267 11.8055 17.2893C11.6 17.152 11.4398 16.9568 11.3451 16.7284C11.2505 16.4999 11.2258 16.2486 11.274 16.0061C11.3222 15.7637 11.4413 15.5409 11.6161 15.3661C11.7909 15.1913 12.0137 15.0722 12.2561 15.024C12.4986 14.9758 12.7499 15.0005 12.9784 15.0952C13.2068 15.1898 13.402 15.35 13.5393 15.5555C13.6767 15.7611 13.75 16.0028 13.75 16.25C13.75 16.5815 13.6183 16.8995 13.3839 17.1339C13.1495 17.3683 12.8315 17.5 12.5 17.5ZM17.5 22.5C17.2528 22.5 17.0111 22.4267 16.8055 22.2893C16.6 22.152 16.4398 21.9568 16.3451 21.7284C16.2505 21.4999 16.2258 21.2486 16.274 21.0061C16.3222 20.7637 16.4413 20.5409 16.6161 20.3661C16.7909 20.1913 17.0137 20.0722 17.2561 20.024C17.4986 19.9758 17.7499 20.0005 17.9784 20.0951C18.2068 20.1898 18.402 20.35 18.5393 20.5555C18.6767 20.7611 18.75 21.0028 18.75 21.25C18.75 21.5815 18.6183 21.8995 18.3839 22.1339C18.1495 22.3683 17.8315 22.5 17.5 22.5ZM17.5 17.5C17.2528 17.5 17.0111 17.4267 16.8055 17.2893C16.6 17.152 16.4398 16.9568 16.3451 16.7284C16.2505 16.4999 16.2258 16.2486 16.274 16.0061C16.3222 15.7637 16.4413 15.5409 16.6161 15.3661C16.7909 15.1913 17.0137 15.0722 17.2561 15.024C17.4986 14.9758 17.7499 15.0005 17.9784 15.0952C18.2068 15.1898 18.402 15.35 18.5393 15.5555C18.6767 15.7611 18.75 16.0028 18.75 16.25C18.75 16.5815 18.6183 16.8995 18.3839 17.1339C18.1495 17.3683 17.8315 17.5 17.5 17.5ZM22.5 22.5C22.2528 22.5 22.0111 22.4267 21.8055 22.2893C21.6 22.152 21.4398 21.9568 21.3451 21.7284C21.2505 21.4999 21.2258 21.2486 21.274 21.0061C21.3223 20.7637 21.4413 20.5409 21.6161 20.3661C21.7909 20.1913 22.0137 20.0722 22.2561 20.024C22.4986 19.9758 22.7499 20.0005 22.9784 20.0951C23.2068 20.1898 23.402 20.35 23.5393 20.5555C23.6767 20.7611 23.75 21.0028 23.75 21.25C23.75 21.5815 23.6183 21.8995 23.3839 22.1339C23.1495 22.3683 22.8315 22.5 22.5 22.5ZM22.5 17.5C22.2528 17.5 22.0111 17.4267 21.8055 17.2893C21.6 17.152 21.4398 16.9568 21.3451 16.7284C21.2505 16.4999 21.2258 16.2486 21.274 16.0061C21.3223 15.7637 21.4413 15.5409 21.6161 15.3661C21.7909 15.1913 22.0137 15.0722 22.2561 15.024C22.4986 14.9758 22.7499 15.0005 22.9784 15.0952C23.2068 15.1898 23.402 15.35 23.5393 15.5555C23.6767 15.7611 23.75 16.0028 23.75 16.25C23.75 16.5815 23.6183 16.8995 23.3839 17.1339C23.1495 17.3683 22.8315 17.5 22.5 17.5Z" fill="#162955"/>
</svg>
