<svg width="39" height="35" viewBox="0 0 39 35" fill="none" xmlns="http://www.w3.org/2000/svg">
<path d="M29.7357 10.9602L20.6373 20L29.7357 29.0398C29.9002 28.696 30 28.316 30 27.9101V12.0898C30 11.684 29.9002 11.304 29.7357 10.9602Z" fill="#162955"/>
<path d="M27.3633 9.45312H2.63671C2.23083 9.45312 1.85085 9.55291 1.50708 9.71738L13.1358 21.2875C14.164 22.3157 15.836 22.3157 16.8642 21.2875L28.4929 9.71738C28.1491 9.55291 27.7691 9.45312 27.3633 9.45312Z" fill="#162955"/>
<path d="M0.264258 10.9602C0.0997852 11.304 0 11.684 0 12.0898V27.9101C0 28.316 0.0997852 28.6961 0.264258 29.0398L9.36264 20L0.264258 10.9602Z" fill="#162955"/>
<path d="M19.3945 21.2429L18.107 22.5303C16.3938 24.2436 13.6061 24.2436 11.8929 22.5303L10.6055 21.2429L1.50708 30.2826C1.85085 30.4471 2.23083 30.5469 2.63671 30.5469H27.3633C27.7691 30.5469 28.1491 30.4471 28.4929 30.2826L19.3945 21.2429Z" fill="#162955"/>
<rect x="21.5" y="0.5" width="17" height="17" rx="8.5" fill="white" stroke="#D7DDEA"/>
<path d="M26.9046 9.36C26.9046 11.62 28.0546 13.13 29.9946 13.13C31.9346 13.13 33.0946 11.62 33.0946 9.36C33.0946 7.09 31.8646 5.55 29.9946 5.55C28.1246 5.55 26.9046 7.09 26.9046 9.36ZM28.1646 9.36C28.1646 7.63 28.8446 6.68 29.9946 6.68C31.1546 6.68 31.8346 7.63 31.8346 9.36C31.8346 11.05 31.1546 12 29.9946 12C28.8446 12 28.1646 11.05 28.1646 9.36Z" fill="#162955"/>
</svg>
