<svg width="10" height="10" viewBox="0 0 10 10" fill="none" xmlns="http://www.w3.org/2000/svg">
<g clip-path="url(#clip0_11_1517)">
<path d="M5.72019 4.99998C5.72019 5.11623 5.67576 5.23259 5.58701 5.32134L1.04156 9.86679C0.863948 10.0444 0.576335 10.0444 0.398835 9.86679C0.221335 9.68918 0.221222 9.40156 0.398835 9.22406L4.62292 4.99998L0.398835 0.775894C0.221221 0.598281 0.221221 0.310667 0.398835 0.133167C0.576448 -0.0443325 0.864061 -0.044446 1.04156 0.133167L5.58701 4.67862C5.67576 4.76737 5.72019 4.88373 5.72019 4.99998Z" fill="#162955"/>
<path d="M9.45457 4.99998C9.45457 5.11623 9.41013 5.23259 9.32138 5.32134L4.77594 9.86679C4.59832 10.0444 4.31071 10.0444 4.13321 9.86679C3.95571 9.68918 3.9556 9.40156 4.13321 9.22406L8.35729 4.99998L4.13321 0.775894C3.9556 0.598281 3.9556 0.310667 4.13321 0.133167C4.31082 -0.0443325 4.59844 -0.044446 4.77594 0.133167L9.32138 4.67862C9.41013 4.76737 9.45457 4.88373 9.45457 4.99998Z" fill="#162955"/>
</g>
<defs>
<clipPath id="clip0_11_1517">
<rect width="10" height="10" fill="white" transform="translate(0 10) rotate(-90)"/>
</clipPath>
</defs>
</svg>
