<svg width="30" height="30" viewBox="0 0 30 30" fill="none" xmlns="http://www.w3.org/2000/svg">
<g clip-path="url(#clip0_11_1430)">
<path fill-rule="evenodd" clip-rule="evenodd" d="M15 0C6.72656 0 0 6.72656 0 15C0 23.2734 6.72656 30 15 30C23.2734 30 30 23.2734 30 15C30 6.72656 23.2734 0 15 0Z" fill="#F34235"/>
<path fill-rule="evenodd" clip-rule="evenodd" d="M21.4453 16.084C21.4453 19.6406 18.5508 22.5293 15 22.5293C11.4434 22.5293 8.55469 19.6348 8.55469 16.084C8.55469 13.8926 9.65039 11.8711 11.4902 10.6816C11.9238 10.4004 12.5039 10.5234 12.7852 10.957C13.0664 11.3906 12.9434 11.9707 12.5098 12.252C11.2031 13.0957 10.4297 14.5312 10.4297 16.084C10.4297 18.6035 12.4805 20.6543 15 20.6543C17.5195 20.6543 19.5703 18.6035 19.5703 16.084C19.5703 14.5312 18.791 13.0957 17.4902 12.252C17.0566 11.9707 16.9336 11.3906 17.2148 10.957C17.4961 10.5234 18.0762 10.4004 18.5098 10.6816C20.3496 11.8711 21.4453 13.8926 21.4453 16.084ZM14.0625 12.7383V8.4082C14.0625 7.89258 14.4844 7.4707 15 7.4707C15.5156 7.4707 15.9375 7.89258 15.9375 8.4082V12.7383C15.9375 13.2539 15.5156 13.6758 15 13.6758C14.4844 13.6758 14.0625 13.2539 14.0625 12.7383Z" fill="white"/>
</g>
<defs>
<clipPath id="clip0_11_1430">
<rect width="30" height="30" fill="white"/>
</clipPath>
</defs>
</svg>
